<svg width="32" height="32" viewBox="0 0 32 32" fill="none" xmlns="http://www.w3.org/2000/svg" shape-rendering="geometricPrecision">
  <circle cx="16" cy="16" r="13.5" fill="#18181b" stroke="#3f3f46" stroke-width="1.5" />
  <rect x="15" y="7" width="2" height="18" rx="1" fill="#ffffff" />
  <path d="M15 10 C10.5 10 8 13 8 16 C8 19 10.5 22 15 22 L15 10 Z" fill="#ffffff" />
  <path d="M15 11 L9 13.5 L9 18.5 L15 21 Z" fill="#000000" opacity="0.25" />
  <path d="M17 10 C21.5 10 24 13 24 16 C24 19 21.5 22 17 22 L17 10 Z" fill="#ffffff" />
  <path d="M17 11 L23 13.5 L23 18.5 L17 21 Z" fill="#000000" opacity="0.25" />
  <circle cx="16" cy="16" r="1.25" fill="#18181b" />
</svg>
